<mxfile host="www.draw.io" modified="2020-02-29T06:55:01.241Z" agent="Mozilla/5.0 (Windows NT 10.0; Win64; x64) AppleWebKit/537.36 (KHTML, like Gecko) Chrome/80.0.3987.87 Safari/537.36" etag="h3z8_htGeUs5sVFjPk1y" version="12.7.9" type="github">
  <diagram id="xVLn104CmB7AnyXg3Bg7" name="第 1 页">
    <mxGraphModel dx="1695" dy="1628" grid="1" gridSize="10" guides="1" tooltips="1" connect="1" arrows="1" fold="1" page="1" pageScale="1" pageWidth="827" pageHeight="1169" math="0" shadow="0">
      <root>
        <mxCell id="0" />
        <mxCell id="1" parent="0" />
        <mxCell id="C5qwW8_5AIW-Mqb_H4qT-33" value="" style="rounded=1;whiteSpace=wrap;html=1;strokeWidth=3;align=left;fillColor=none;strokeColor=#314354;fontColor=#ffffff;dashed=1;" vertex="1" parent="1">
          <mxGeometry x="-90" y="40" width="310" height="2090" as="geometry" />
        </mxCell>
        <mxCell id="C5qwW8_5AIW-Mqb_H4qT-34" value="User 2" style="shape=umlLifeline;perimeter=lifelinePerimeter;whiteSpace=wrap;html=1;container=1;collapsible=0;recursiveResize=0;outlineConnect=0;rounded=1;shadow=0;comic=0;labelBackgroundColor=none;strokeWidth=1;fontFamily=Verdana;fontSize=12;align=center;fillColor=#f8cecc;strokeColor=#b85450;" vertex="1" parent="1">
          <mxGeometry x="680" y="80" width="100" height="1800" as="geometry" />
        </mxCell>
        <mxCell id="C5qwW8_5AIW-Mqb_H4qT-37" value="" style="rounded=1;whiteSpace=wrap;html=1;dashed=1;dashPattern=1 4;fillColor=#f5f5f5;strokeColor=#666666;fontColor=#333333;" vertex="1" parent="1">
          <mxGeometry x="-280" y="642" width="1100" height="180" as="geometry" />
        </mxCell>
        <mxCell id="C5qwW8_5AIW-Mqb_H4qT-38" value="" style="rounded=1;whiteSpace=wrap;html=1;dashed=1;dashPattern=1 4;fillColor=#f5f5f5;strokeColor=#666666;fontColor=#333333;" vertex="1" parent="1">
          <mxGeometry x="-280" y="422" width="1100" height="190" as="geometry" />
        </mxCell>
        <mxCell id="C5qwW8_5AIW-Mqb_H4qT-39" value="RCS" style="shape=umlLifeline;perimeter=lifelinePerimeter;whiteSpace=wrap;html=1;container=1;collapsible=0;recursiveResize=0;outlineConnect=0;rounded=1;shadow=0;comic=0;labelBackgroundColor=none;strokeWidth=1;fontFamily=Verdana;fontSize=12;align=center;fillColor=#60a917;strokeColor=#2D7600;fontColor=#ffffff;" vertex="1" parent="1">
          <mxGeometry x="240" y="80" width="100" height="1800" as="geometry" />
        </mxCell>
        <mxCell id="C5qwW8_5AIW-Mqb_H4qT-40" value="" style="html=1;points=[];perimeter=orthogonalPerimeter;rounded=0;shadow=0;comic=0;labelBackgroundColor=none;strokeWidth=1;fontFamily=Verdana;fontSize=12;align=center;fillColor=#60a917;strokeColor=#2D7600;fontColor=#ffffff;" vertex="1" parent="C5qwW8_5AIW-Mqb_H4qT-39">
          <mxGeometry x="45" y="345" width="10" height="187" as="geometry" />
        </mxCell>
        <mxCell id="C5qwW8_5AIW-Mqb_H4qT-42" value="Client A" style="shape=umlLifeline;perimeter=lifelinePerimeter;whiteSpace=wrap;html=1;container=1;collapsible=0;recursiveResize=0;outlineConnect=0;rounded=1;shadow=0;comic=0;labelBackgroundColor=none;strokeWidth=1;fontFamily=Verdana;fontSize=12;align=center;fillColor=#fff2cc;strokeColor=#d6b656;" vertex="1" parent="1">
          <mxGeometry x="100" y="80" width="100" height="1900" as="geometry" />
        </mxCell>
        <mxCell id="C5qwW8_5AIW-Mqb_H4qT-43" value="" style="html=1;points=[];perimeter=orthogonalPerimeter;rounded=0;shadow=0;comic=0;labelBackgroundColor=none;strokeWidth=1;fontFamily=Verdana;fontSize=12;align=center;" vertex="1" parent="C5qwW8_5AIW-Mqb_H4qT-42">
          <mxGeometry x="45" y="344" width="10" height="188" as="geometry" />
        </mxCell>
        <mxCell id="C5qwW8_5AIW-Mqb_H4qT-45" value="MakeCall" style="html=1;verticalAlign=bottom;endArrow=block;entryX=0;entryY=0;labelBackgroundColor=none;fontFamily=Verdana;fontSize=13;edgeStyle=elbowEdgeStyle;elbow=vertical;strokeColor=#990000;strokeWidth=4;fontStyle=1" edge="1" parent="1">
          <mxGeometry relative="1" as="geometry">
            <mxPoint x="1" y="441" as="sourcePoint" />
            <mxPoint x="286" y="441" as="targetPoint" />
          </mxGeometry>
        </mxCell>
        <mxCell id="C5qwW8_5AIW-Mqb_H4qT-46" value="Client B" style="shape=umlLifeline;perimeter=lifelinePerimeter;whiteSpace=wrap;html=1;container=1;collapsible=0;recursiveResize=0;outlineConnect=0;rounded=1;shadow=0;comic=0;labelBackgroundColor=none;strokeWidth=1;fontFamily=Verdana;fontSize=12;align=center;fillColor=#ffe6cc;strokeColor=#d79b00;" vertex="1" parent="1">
          <mxGeometry x="400" y="80" width="100" height="1800" as="geometry" />
        </mxCell>
        <mxCell id="C5qwW8_5AIW-Mqb_H4qT-47" value="" style="html=1;points=[];perimeter=orthogonalPerimeter;rounded=0;shadow=0;comic=0;labelBackgroundColor=none;strokeWidth=1;fontFamily=Verdana;fontSize=12;align=center;" vertex="1" parent="C5qwW8_5AIW-Mqb_H4qT-46">
          <mxGeometry x="45" y="342" width="10" height="190" as="geometry" />
        </mxCell>
        <mxCell id="C5qwW8_5AIW-Mqb_H4qT-49" value="User 1" style="shape=umlLifeline;perimeter=lifelinePerimeter;whiteSpace=wrap;html=1;container=1;collapsible=0;recursiveResize=0;outlineConnect=0;rounded=1;shadow=0;comic=0;labelBackgroundColor=none;strokeWidth=1;fontFamily=Verdana;fontSize=12;align=center;fillColor=#e1d5e7;strokeColor=#9673a6;" vertex="1" parent="1">
          <mxGeometry x="540" y="80" width="100" height="1790" as="geometry" />
        </mxCell>
        <mxCell id="C5qwW8_5AIW-Mqb_H4qT-50" value="" style="html=1;points=[];perimeter=orthogonalPerimeter;rounded=0;shadow=0;comic=0;labelBackgroundColor=none;strokeWidth=1;fontFamily=Verdana;fontSize=12;align=center;" vertex="1" parent="C5qwW8_5AIW-Mqb_H4qT-49">
          <mxGeometry x="45" y="558" width="10" height="180" as="geometry" />
        </mxCell>
        <mxCell id="C5qwW8_5AIW-Mqb_H4qT-51" value="" style="html=1;points=[];perimeter=orthogonalPerimeter;rounded=0;shadow=0;comic=0;labelBackgroundColor=none;strokeWidth=1;fontFamily=Verdana;fontSize=12;align=center;" vertex="1" parent="C5qwW8_5AIW-Mqb_H4qT-49">
          <mxGeometry x="45" y="342" width="10" height="190" as="geometry" />
        </mxCell>
        <mxCell id="C5qwW8_5AIW-Mqb_H4qT-53" value="" style="shape=flexArrow;endArrow=classic;startArrow=classic;html=1;fillColor=#dae8fc;strokeColor=#6c8ebf;targetPerimeterSpacing=0;width=18;endSize=10.33;" edge="1" parent="1">
          <mxGeometry width="50" height="50" relative="1" as="geometry">
            <mxPoint x="155" y="541" as="sourcePoint" />
            <mxPoint x="585" y="541" as="targetPoint" />
          </mxGeometry>
        </mxCell>
        <mxCell id="C5qwW8_5AIW-Mqb_H4qT-54" value="Client A and User 1 are in talking Call" style="text;html=1;align=center;verticalAlign=middle;resizable=0;points=[];labelBackgroundColor=#ffffff;" vertex="1" connectable="0" parent="C5qwW8_5AIW-Mqb_H4qT-53">
          <mxGeometry x="-0.2421" relative="1" as="geometry">
            <mxPoint x="30" y="-2" as="offset" />
          </mxGeometry>
        </mxCell>
        <mxCell id="C5qwW8_5AIW-Mqb_H4qT-55" value="INVITE" style="html=1;verticalAlign=bottom;endArrow=block;entryX=0;entryY=0;labelBackgroundColor=none;fontFamily=Verdana;fontSize=12;edgeStyle=elbowEdgeStyle;elbow=vertical;" edge="1" parent="1">
          <mxGeometry relative="1" as="geometry">
            <mxPoint x="155" y="476" as="sourcePoint" />
            <mxPoint x="285" y="476" as="targetPoint" />
          </mxGeometry>
        </mxCell>
        <mxCell id="C5qwW8_5AIW-Mqb_H4qT-56" value="&lt;font style=&quot;font-size: 13px&quot;&gt;&lt;span style=&quot;font-size: 13px&quot;&gt;&lt;font color=&quot;#990000&quot; style=&quot;font-size: 13px&quot;&gt;A呼出到User1：&lt;/font&gt;&lt;br style=&quot;font-size: 13px&quot;&gt;APP 调用 内置软电话 API MakeCall接口直接呼叫User1&lt;br style=&quot;font-size: 13px&quot;&gt;&lt;/span&gt;&lt;/font&gt;" style="text;html=1;fillColor=#fff2cc;align=left;verticalAlign=middle;whiteSpace=wrap;rounded=0;dashed=1;dashPattern=1 4;strokeColor=#d6b656;fontStyle=1;fontSize=13;" vertex="1" parent="1">
          <mxGeometry x="-271" y="442" width="240" height="140" as="geometry" />
        </mxCell>
        <mxCell id="C5qwW8_5AIW-Mqb_H4qT-63" value="Terminate" style="html=1;verticalAlign=bottom;endArrow=block;entryX=0;entryY=0;labelBackgroundColor=none;fontFamily=Verdana;fontSize=14;edgeStyle=elbowEdgeStyle;elbow=vertical;strokeColor=#990000;strokeWidth=4;fontStyle=1" edge="1" parent="1">
          <mxGeometry relative="1" as="geometry">
            <mxPoint x="-1" y="570" as="sourcePoint" />
            <mxPoint x="284" y="570" as="targetPoint" />
          </mxGeometry>
        </mxCell>
        <mxCell id="C5qwW8_5AIW-Mqb_H4qT-64" value="" style="html=1;points=[];perimeter=orthogonalPerimeter;rounded=0;shadow=0;comic=0;labelBackgroundColor=none;strokeWidth=1;fontFamily=Verdana;fontSize=12;align=center;fillColor=#60a917;strokeColor=#2D7600;fontColor=#ffffff;" vertex="1" parent="1">
          <mxGeometry x="285" y="641" width="10" height="177" as="geometry" />
        </mxCell>
        <mxCell id="C5qwW8_5AIW-Mqb_H4qT-65" value="" style="html=1;points=[];perimeter=orthogonalPerimeter;rounded=0;shadow=0;comic=0;labelBackgroundColor=none;strokeWidth=1;fontFamily=Verdana;fontSize=12;align=center;" vertex="1" parent="1">
          <mxGeometry x="145" y="640" width="10" height="178" as="geometry" />
        </mxCell>
        <mxCell id="C5qwW8_5AIW-Mqb_H4qT-66" value="INVITE" style="html=1;verticalAlign=bottom;endArrow=none;entryX=0;entryY=0;labelBackgroundColor=none;fontFamily=Verdana;fontSize=12;edgeStyle=elbowEdgeStyle;elbow=vertical;startArrow=classic;startFill=1;endFill=0;" edge="1" parent="1">
          <mxGeometry relative="1" as="geometry">
            <mxPoint x="155" y="670" as="sourcePoint" />
            <mxPoint x="285" y="670" as="targetPoint" />
          </mxGeometry>
        </mxCell>
        <mxCell id="C5qwW8_5AIW-Mqb_H4qT-67" value="" style="html=1;points=[];perimeter=orthogonalPerimeter;rounded=0;shadow=0;comic=0;labelBackgroundColor=none;strokeWidth=1;fontFamily=Verdana;fontSize=12;align=center;" vertex="1" parent="1">
          <mxGeometry x="445" y="638" width="10" height="180" as="geometry" />
        </mxCell>
        <mxCell id="C5qwW8_5AIW-Mqb_H4qT-68" value="" style="shape=flexArrow;endArrow=classic;startArrow=classic;html=1;fillColor=#dae8fc;strokeColor=#6c8ebf;targetPerimeterSpacing=0;width=18;endSize=8;" edge="1" parent="1" source="C5qwW8_5AIW-Mqb_H4qT-65" target="C5qwW8_5AIW-Mqb_H4qT-50">
          <mxGeometry width="50" height="50" relative="1" as="geometry">
            <mxPoint x="435" y="968" as="sourcePoint" />
            <mxPoint x="445" y="718" as="targetPoint" />
          </mxGeometry>
        </mxCell>
        <mxCell id="C5qwW8_5AIW-Mqb_H4qT-69" value="Client A and User 1 are in talking Call" style="text;html=1;align=center;verticalAlign=middle;resizable=0;points=[];labelBackgroundColor=#ffffff;" vertex="1" connectable="0" parent="C5qwW8_5AIW-Mqb_H4qT-68">
          <mxGeometry x="-0.2421" relative="1" as="geometry">
            <mxPoint x="12" y="-1" as="offset" />
          </mxGeometry>
        </mxCell>
        <mxCell id="C5qwW8_5AIW-Mqb_H4qT-70" value="Pickup" style="html=1;verticalAlign=bottom;endArrow=block;entryX=0;entryY=0;labelBackgroundColor=none;fontFamily=Verdana;fontSize=14;edgeStyle=elbowEdgeStyle;elbow=vertical;strokeWidth=4;strokeColor=#990000;fontStyle=1" edge="1" parent="1">
          <mxGeometry relative="1" as="geometry">
            <mxPoint y="693" as="sourcePoint" />
            <mxPoint x="285" y="693" as="targetPoint" />
          </mxGeometry>
        </mxCell>
        <mxCell id="C5qwW8_5AIW-Mqb_H4qT-71" value="Hangup" style="html=1;verticalAlign=bottom;endArrow=block;entryX=0;entryY=0;labelBackgroundColor=none;fontFamily=Verdana;fontSize=14;edgeStyle=elbowEdgeStyle;elbow=vertical;strokeWidth=4;strokeColor=#990000;fontStyle=1" edge="1" parent="1">
          <mxGeometry relative="1" as="geometry">
            <mxPoint y="758" as="sourcePoint" />
            <mxPoint x="284" y="758" as="targetPoint" />
          </mxGeometry>
        </mxCell>
        <mxCell id="C5qwW8_5AIW-Mqb_H4qT-82" value="INVITE" style="html=1;verticalAlign=bottom;endArrow=block;entryX=0.2;entryY=0.328;labelBackgroundColor=none;fontFamily=Verdana;fontSize=12;edgeStyle=elbowEdgeStyle;elbow=vertical;entryDx=0;entryDy=0;entryPerimeter=0;labelPosition=center;verticalLabelPosition=middle;align=center;" edge="1" parent="1">
          <mxGeometry relative="1" as="geometry">
            <mxPoint x="295" y="490" as="sourcePoint" />
            <mxPoint x="587" y="489" as="targetPoint" />
            <Array as="points">
              <mxPoint x="580" y="489" />
            </Array>
          </mxGeometry>
        </mxCell>
        <mxCell id="C5qwW8_5AIW-Mqb_H4qT-83" value="200OK" style="html=1;verticalAlign=bottom;endArrow=open;dashed=1;endSize=8;labelBackgroundColor=none;fontFamily=Verdana;fontSize=12;" edge="1" parent="1">
          <mxGeometry relative="1" as="geometry">
            <mxPoint x="296" y="505.5" as="targetPoint" />
            <mxPoint x="581" y="506" as="sourcePoint" />
          </mxGeometry>
        </mxCell>
        <mxCell id="C5qwW8_5AIW-Mqb_H4qT-84" value="200OK" style="html=1;verticalAlign=bottom;endArrow=open;dashed=1;endSize=8;labelBackgroundColor=none;fontFamily=Verdana;fontSize=12;" edge="1" parent="1">
          <mxGeometry relative="1" as="geometry">
            <mxPoint x="155" y="515.5" as="targetPoint" />
            <mxPoint x="280" y="516" as="sourcePoint" />
          </mxGeometry>
        </mxCell>
        <mxCell id="C5qwW8_5AIW-Mqb_H4qT-85" value="INVITE" style="html=1;verticalAlign=bottom;endArrow=none;labelBackgroundColor=none;fontFamily=Verdana;fontSize=12;edgeStyle=elbowEdgeStyle;elbow=vertical;startArrow=classic;startFill=1;endFill=0;" edge="1" parent="1" target="C5qwW8_5AIW-Mqb_H4qT-50">
          <mxGeometry relative="1" as="geometry">
            <mxPoint x="295" y="655" as="sourcePoint" />
            <mxPoint x="445" y="655" as="targetPoint" />
          </mxGeometry>
        </mxCell>
        <mxCell id="C5qwW8_5AIW-Mqb_H4qT-86" value="API APP" style="shape=umlLifeline;perimeter=lifelinePerimeter;whiteSpace=wrap;html=1;container=1;collapsible=0;recursiveResize=0;outlineConnect=0;rounded=1;shadow=0;comic=0;labelBackgroundColor=none;strokeWidth=1;fontFamily=Verdana;fontSize=12;align=center;fillColor=#fff2cc;strokeColor=#d6b656;" vertex="1" parent="1">
          <mxGeometry x="-61" y="81" width="100" height="1839" as="geometry" />
        </mxCell>
        <mxCell id="C5qwW8_5AIW-Mqb_H4qT-87" value="" style="html=1;points=[];perimeter=orthogonalPerimeter;rounded=0;shadow=0;comic=0;labelBackgroundColor=none;strokeWidth=1;fontFamily=Verdana;fontSize=12;align=center;" vertex="1" parent="C5qwW8_5AIW-Mqb_H4qT-86">
          <mxGeometry x="45" y="344" width="10" height="188" as="geometry" />
        </mxCell>
        <mxCell id="C5qwW8_5AIW-Mqb_H4qT-89" value="" style="html=1;points=[];perimeter=orthogonalPerimeter;rounded=0;shadow=0;comic=0;labelBackgroundColor=none;strokeWidth=1;fontFamily=Verdana;fontSize=12;align=center;" vertex="1" parent="C5qwW8_5AIW-Mqb_H4qT-86">
          <mxGeometry x="45" y="562" width="10" height="178" as="geometry" />
        </mxCell>
        <mxCell id="C5qwW8_5AIW-Mqb_H4qT-91" value="NOTIFY" style="html=1;verticalAlign=bottom;endArrow=open;dashed=1;endSize=8;labelBackgroundColor=none;fontFamily=Verdana;fontSize=12;" edge="1" parent="1">
          <mxGeometry relative="1" as="geometry">
            <mxPoint x="158" y="457.5" as="targetPoint" />
            <mxPoint x="283" y="458" as="sourcePoint" />
          </mxGeometry>
        </mxCell>
        <mxCell id="C5qwW8_5AIW-Mqb_H4qT-92" value="&lt;span style=&quot;font-size: 15px&quot;&gt;&lt;b&gt;内置软电话音视频通话：&lt;br&gt;必须先使用接口&lt;/b&gt;&lt;/span&gt;&lt;span lang=&quot;EN-US&quot;&gt;&lt;b&gt;&lt;font style=&quot;font-size: 15px&quot;&gt;&lt;font color=&quot;#990000&quot;&gt;PInitialize&lt;/font&gt;进行初始化内置软电话，才可使用内置软电话的相关功能。&lt;/font&gt;&lt;/b&gt;&lt;/span&gt;&lt;span style=&quot;font-size: 15px&quot;&gt;&lt;b&gt;&lt;br&gt;&lt;/b&gt;&lt;/span&gt;" style="text;html=1;align=left;verticalAlign=middle;whiteSpace=wrap;rounded=0;dashed=1;dashPattern=1 4;fillColor=#d5e8d4;strokeColor=#82b366;" vertex="1" parent="1">
          <mxGeometry x="-191" y="-120" width="960" height="90" as="geometry" />
        </mxCell>
        <mxCell id="C5qwW8_5AIW-Mqb_H4qT-93" value="&lt;font style=&quot;font-size: 13px&quot;&gt;&lt;b style=&quot;font-size: 13px&quot;&gt;&lt;font color=&quot;#990000&quot; style=&quot;font-size: 13px&quot;&gt;User1呼入到A：&lt;/font&gt;&lt;br style=&quot;font-size: 13px&quot;&gt;情况二：APP 调用&amp;nbsp;&lt;/b&gt;&lt;span style=&quot;font-weight: 700&quot;&gt;内置软电话&lt;/span&gt;&lt;b style=&quot;font-size: 13px&quot;&gt;&amp;nbsp;API接口直接应答&lt;br style=&quot;font-size: 13px&quot;&gt;&lt;/b&gt;&lt;/font&gt;" style="text;html=1;fillColor=#fff2cc;align=left;verticalAlign=middle;whiteSpace=wrap;rounded=0;dashed=1;dashPattern=1 4;strokeColor=#d6b656;fontSize=13;" vertex="1" parent="1">
          <mxGeometry x="-271" y="663" width="240" height="140" as="geometry" />
        </mxCell>
        <mxCell id="C5qwW8_5AIW-Mqb_H4qT-108" value="" style="rounded=1;whiteSpace=wrap;html=1;dashed=1;dashPattern=1 4;fillColor=#f5f5f5;strokeColor=#666666;fontColor=#333333;" vertex="1" parent="1">
          <mxGeometry x="-280" y="842" width="1100" height="230" as="geometry" />
        </mxCell>
        <mxCell id="C5qwW8_5AIW-Mqb_H4qT-109" value="" style="html=1;points=[];perimeter=orthogonalPerimeter;rounded=0;shadow=0;comic=0;labelBackgroundColor=none;strokeWidth=1;fontFamily=Verdana;fontSize=12;align=center;fillColor=#60a917;strokeColor=#2D7600;fontColor=#ffffff;" vertex="1" parent="1">
          <mxGeometry x="285" y="842" width="10" height="230" as="geometry" />
        </mxCell>
        <mxCell id="C5qwW8_5AIW-Mqb_H4qT-110" value="" style="html=1;points=[];perimeter=orthogonalPerimeter;rounded=0;shadow=0;comic=0;labelBackgroundColor=none;strokeWidth=1;fontFamily=Verdana;fontSize=12;align=center;" vertex="1" parent="1">
          <mxGeometry x="145" y="842" width="10" height="230" as="geometry" />
        </mxCell>
        <mxCell id="C5qwW8_5AIW-Mqb_H4qT-111" value="" style="html=1;points=[];perimeter=orthogonalPerimeter;rounded=0;shadow=0;comic=0;labelBackgroundColor=none;strokeWidth=1;fontFamily=Verdana;fontSize=12;align=center;" vertex="1" parent="1">
          <mxGeometry x="445" y="842" width="10" height="230" as="geometry" />
        </mxCell>
        <mxCell id="C5qwW8_5AIW-Mqb_H4qT-112" value="" style="html=1;points=[];perimeter=orthogonalPerimeter;rounded=0;shadow=0;comic=0;labelBackgroundColor=none;strokeWidth=1;fontFamily=Verdana;fontSize=12;align=center;" vertex="1" parent="1">
          <mxGeometry x="585" y="842" width="10" height="230" as="geometry" />
        </mxCell>
        <mxCell id="C5qwW8_5AIW-Mqb_H4qT-113" value="" style="shape=flexArrow;endArrow=classic;startArrow=classic;html=1;exitX=1.5;exitY=0.114;exitDx=0;exitDy=0;exitPerimeter=0;fillColor=#dae8fc;strokeColor=#6c8ebf;targetPerimeterSpacing=0;width=22;endSize=9.33;" edge="1" parent="1">
          <mxGeometry width="50" height="50" relative="1" as="geometry">
            <mxPoint x="300" y="955.1599999999999" as="sourcePoint" />
            <mxPoint x="585" y="955" as="targetPoint" />
            <Array as="points">
              <mxPoint x="460" y="955" />
            </Array>
          </mxGeometry>
        </mxCell>
        <mxCell id="C5qwW8_5AIW-Mqb_H4qT-114" value="User 1 are in hold call" style="text;html=1;align=center;verticalAlign=middle;resizable=0;points=[];labelBackgroundColor=#ffffff;" vertex="1" connectable="0" parent="C5qwW8_5AIW-Mqb_H4qT-113">
          <mxGeometry x="-0.2421" relative="1" as="geometry">
            <mxPoint x="27" as="offset" />
          </mxGeometry>
        </mxCell>
        <mxCell id="C5qwW8_5AIW-Mqb_H4qT-115" value="" style="html=1;points=[];perimeter=orthogonalPerimeter;rounded=0;shadow=0;comic=0;labelBackgroundColor=none;strokeWidth=1;fontFamily=Verdana;fontSize=12;align=center;" vertex="1" parent="1">
          <mxGeometry x="-16" y="843" width="10" height="229" as="geometry" />
        </mxCell>
        <mxCell id="C5qwW8_5AIW-Mqb_H4qT-116" value="&lt;font style=&quot;font-size: 13px&quot;&gt;&lt;b style=&quot;font-size: 13px&quot;&gt;&lt;font color=&quot;#990000&quot; style=&quot;font-size: 13px&quot;&gt;保持/取消保持:&lt;/font&gt;&lt;br style=&quot;font-size: 13px&quot;&gt;APP 调用UFO API Hold接口&lt;br style=&quot;font-size: 13px&quot;&gt;&lt;br style=&quot;font-size: 13px&quot;&gt;&lt;/b&gt;&lt;/font&gt;" style="text;html=1;fillColor=#fff2cc;align=left;verticalAlign=middle;whiteSpace=wrap;rounded=0;dashed=1;dashPattern=1 4;strokeColor=#d6b656;fontSize=13;" vertex="1" parent="1">
          <mxGeometry x="-271" y="859" width="240" height="195" as="geometry" />
        </mxCell>
        <mxCell id="C5qwW8_5AIW-Mqb_H4qT-117" value="" style="shape=flexArrow;endArrow=classic;startArrow=classic;html=1;fillColor=#dae8fc;strokeColor=#6c8ebf;targetPerimeterSpacing=0;width=18;endSize=10.33;" edge="1" parent="1">
          <mxGeometry width="50" height="50" relative="1" as="geometry">
            <mxPoint x="154" y="862" as="sourcePoint" />
            <mxPoint x="584" y="862" as="targetPoint" />
          </mxGeometry>
        </mxCell>
        <mxCell id="C5qwW8_5AIW-Mqb_H4qT-118" value="Client A and User 1 are in talking Call" style="text;html=1;align=center;verticalAlign=middle;resizable=0;points=[];labelBackgroundColor=#ffffff;" vertex="1" connectable="0" parent="C5qwW8_5AIW-Mqb_H4qT-117">
          <mxGeometry x="-0.2421" relative="1" as="geometry">
            <mxPoint x="30" y="-2" as="offset" />
          </mxGeometry>
        </mxCell>
        <mxCell id="C5qwW8_5AIW-Mqb_H4qT-119" value="Hold" style="html=1;verticalAlign=bottom;endArrow=block;labelBackgroundColor=none;fontFamily=Verdana;fontSize=14;edgeStyle=elbowEdgeStyle;elbow=vertical;strokeWidth=4;strokeColor=#990000;fontStyle=1;" edge="1" parent="1">
          <mxGeometry relative="1" as="geometry">
            <mxPoint y="892" as="sourcePoint" />
            <mxPoint x="280" y="892" as="targetPoint" />
          </mxGeometry>
        </mxCell>
        <mxCell id="C5qwW8_5AIW-Mqb_H4qT-120" value="INVITE" style="html=1;verticalAlign=bottom;endArrow=block;entryX=0.2;entryY=0.328;labelBackgroundColor=none;fontFamily=Verdana;fontSize=12;edgeStyle=elbowEdgeStyle;elbow=vertical;entryDx=0;entryDy=0;entryPerimeter=0;labelPosition=center;verticalLabelPosition=middle;align=center;" edge="1" parent="1">
          <mxGeometry relative="1" as="geometry">
            <mxPoint x="292" y="913" as="sourcePoint" />
            <mxPoint x="584" y="912" as="targetPoint" />
            <Array as="points">
              <mxPoint x="577" y="912" />
            </Array>
          </mxGeometry>
        </mxCell>
        <mxCell id="C5qwW8_5AIW-Mqb_H4qT-121" value="200OK" style="html=1;verticalAlign=bottom;endArrow=open;dashed=1;endSize=8;labelBackgroundColor=none;fontFamily=Verdana;fontSize=12;" edge="1" parent="1">
          <mxGeometry relative="1" as="geometry">
            <mxPoint x="295" y="932" as="targetPoint" />
            <mxPoint x="580" y="932.5" as="sourcePoint" />
          </mxGeometry>
        </mxCell>
        <mxCell id="C5qwW8_5AIW-Mqb_H4qT-122" value="Unhold" style="html=1;verticalAlign=bottom;endArrow=block;labelBackgroundColor=none;fontFamily=Verdana;fontSize=14;edgeStyle=elbowEdgeStyle;elbow=vertical;strokeWidth=4;strokeColor=#990000;fontStyle=1;" edge="1" parent="1">
          <mxGeometry relative="1" as="geometry">
            <mxPoint y="984" as="sourcePoint" />
            <mxPoint x="280" y="984" as="targetPoint" />
          </mxGeometry>
        </mxCell>
        <mxCell id="C5qwW8_5AIW-Mqb_H4qT-123" value="" style="shape=flexArrow;endArrow=classic;startArrow=classic;html=1;fillColor=#dae8fc;strokeColor=#6c8ebf;targetPerimeterSpacing=0;width=18;endSize=10.33;" edge="1" parent="1">
          <mxGeometry width="50" height="50" relative="1" as="geometry">
            <mxPoint x="157" y="1054" as="sourcePoint" />
            <mxPoint x="587" y="1054" as="targetPoint" />
          </mxGeometry>
        </mxCell>
        <mxCell id="C5qwW8_5AIW-Mqb_H4qT-124" value="Client A and User 1 are in talking Call" style="text;html=1;align=center;verticalAlign=middle;resizable=0;points=[];labelBackgroundColor=#ffffff;" vertex="1" connectable="0" parent="C5qwW8_5AIW-Mqb_H4qT-123">
          <mxGeometry x="-0.2421" relative="1" as="geometry">
            <mxPoint x="30" y="-2" as="offset" />
          </mxGeometry>
        </mxCell>
        <mxCell id="C5qwW8_5AIW-Mqb_H4qT-125" value="INVITE" style="html=1;verticalAlign=bottom;endArrow=block;entryX=0.2;entryY=0.328;labelBackgroundColor=none;fontFamily=Verdana;fontSize=12;edgeStyle=elbowEdgeStyle;elbow=vertical;entryDx=0;entryDy=0;entryPerimeter=0;labelPosition=center;verticalLabelPosition=middle;align=center;" edge="1" parent="1">
          <mxGeometry relative="1" as="geometry">
            <mxPoint x="293" y="998" as="sourcePoint" />
            <mxPoint x="585" y="997" as="targetPoint" />
            <Array as="points">
              <mxPoint x="578" y="997" />
            </Array>
          </mxGeometry>
        </mxCell>
        <mxCell id="C5qwW8_5AIW-Mqb_H4qT-126" value="200OK" style="html=1;verticalAlign=bottom;endArrow=open;dashed=1;endSize=8;labelBackgroundColor=none;fontFamily=Verdana;fontSize=12;" edge="1" parent="1">
          <mxGeometry relative="1" as="geometry">
            <mxPoint x="295" y="1019" as="targetPoint" />
            <mxPoint x="580" y="1019.5" as="sourcePoint" />
          </mxGeometry>
        </mxCell>
        <mxCell id="C5qwW8_5AIW-Mqb_H4qT-127" value="" style="rounded=1;whiteSpace=wrap;html=1;dashed=1;dashPattern=1 4;fillColor=#f5f5f5;strokeColor=#666666;fontColor=#333333;" vertex="1" parent="1">
          <mxGeometry x="-280" y="1102" width="1100" height="170" as="geometry" />
        </mxCell>
        <mxCell id="C5qwW8_5AIW-Mqb_H4qT-128" value="" style="html=1;points=[];perimeter=orthogonalPerimeter;rounded=0;shadow=0;comic=0;labelBackgroundColor=none;strokeWidth=1;fontFamily=Verdana;fontSize=12;align=center;fillColor=#60a917;strokeColor=#2D7600;fontColor=#ffffff;" vertex="1" parent="1">
          <mxGeometry x="284" y="1102" width="10" height="170" as="geometry" />
        </mxCell>
        <mxCell id="C5qwW8_5AIW-Mqb_H4qT-129" value="" style="html=1;points=[];perimeter=orthogonalPerimeter;rounded=0;shadow=0;comic=0;labelBackgroundColor=none;strokeWidth=1;fontFamily=Verdana;fontSize=12;align=center;" vertex="1" parent="1">
          <mxGeometry x="144" y="1102" width="10" height="170" as="geometry" />
        </mxCell>
        <mxCell id="C5qwW8_5AIW-Mqb_H4qT-130" value="" style="html=1;points=[];perimeter=orthogonalPerimeter;rounded=0;shadow=0;comic=0;labelBackgroundColor=none;strokeWidth=1;fontFamily=Verdana;fontSize=12;align=center;" vertex="1" parent="1">
          <mxGeometry x="444" y="1102" width="10" height="170" as="geometry" />
        </mxCell>
        <mxCell id="C5qwW8_5AIW-Mqb_H4qT-131" value="" style="html=1;points=[];perimeter=orthogonalPerimeter;rounded=0;shadow=0;comic=0;labelBackgroundColor=none;strokeWidth=1;fontFamily=Verdana;fontSize=12;align=center;" vertex="1" parent="1">
          <mxGeometry x="584" y="1102" width="10" height="170" as="geometry" />
        </mxCell>
        <mxCell id="C5qwW8_5AIW-Mqb_H4qT-132" value="Transfer" style="html=1;verticalAlign=bottom;endArrow=block;entryX=0;entryY=0;labelBackgroundColor=none;fontFamily=Verdana;fontSize=14;edgeStyle=elbowEdgeStyle;elbow=vertical;strokeWidth=4;strokeColor=#990000;exitX=0.9;exitY=0.288;exitDx=0;exitDy=0;exitPerimeter=0;fontStyle=1" edge="1" parent="1" source="C5qwW8_5AIW-Mqb_H4qT-137">
          <mxGeometry relative="1" as="geometry">
            <mxPoint x="153" y="1152" as="sourcePoint" />
            <mxPoint x="283" y="1152" as="targetPoint" />
          </mxGeometry>
        </mxCell>
        <mxCell id="C5qwW8_5AIW-Mqb_H4qT-133" value="" style="shape=flexArrow;endArrow=classic;startArrow=classic;html=1;fillColor=#dae8fc;strokeColor=#6c8ebf;targetPerimeterSpacing=0;entryX=0;entryY=0.676;entryDx=0;entryDy=0;entryPerimeter=0;width=19;endSize=8.7;" edge="1" parent="1">
          <mxGeometry width="50" height="50" relative="1" as="geometry">
            <mxPoint x="159" y="1244" as="sourcePoint" />
            <mxPoint x="584" y="1243.92" as="targetPoint" />
          </mxGeometry>
        </mxCell>
        <mxCell id="C5qwW8_5AIW-Mqb_H4qT-134" value="A and User 1 are in talking call" style="text;html=1;align=center;verticalAlign=middle;resizable=0;points=[];labelBackgroundColor=#ffffff;" vertex="1" connectable="0" parent="C5qwW8_5AIW-Mqb_H4qT-133">
          <mxGeometry x="-0.2421" relative="1" as="geometry">
            <mxPoint y="-1" as="offset" />
          </mxGeometry>
        </mxCell>
        <mxCell id="C5qwW8_5AIW-Mqb_H4qT-135" value="" style="shape=flexArrow;endArrow=classic;startArrow=classic;html=1;fillColor=#dae8fc;strokeColor=#6c8ebf;targetPerimeterSpacing=0;width=22;endSize=10;" edge="1" parent="1" target="C5qwW8_5AIW-Mqb_H4qT-131">
          <mxGeometry width="50" height="50" relative="1" as="geometry">
            <mxPoint x="460" y="1132" as="sourcePoint" />
            <mxPoint x="289" y="1122" as="targetPoint" />
          </mxGeometry>
        </mxCell>
        <mxCell id="C5qwW8_5AIW-Mqb_H4qT-136" value="B and User 1 are in talking call" style="text;html=1;align=center;verticalAlign=middle;resizable=0;points=[];labelBackgroundColor=#ffffff;" vertex="1" connectable="0" parent="C5qwW8_5AIW-Mqb_H4qT-135">
          <mxGeometry x="-0.2421" relative="1" as="geometry">
            <mxPoint x="13" as="offset" />
          </mxGeometry>
        </mxCell>
        <mxCell id="C5qwW8_5AIW-Mqb_H4qT-137" value="" style="html=1;points=[];perimeter=orthogonalPerimeter;rounded=0;shadow=0;comic=0;labelBackgroundColor=none;strokeWidth=1;fontFamily=Verdana;fontSize=12;align=center;" vertex="1" parent="1">
          <mxGeometry x="-16" y="1102" width="10" height="170" as="geometry" />
        </mxCell>
        <mxCell id="C5qwW8_5AIW-Mqb_H4qT-138" value="&lt;font style=&quot;font-size: 13px&quot;&gt;&lt;b&gt;&lt;font color=&quot;#990000&quot;&gt;盲转：&lt;br&gt;&lt;/font&gt;&lt;/b&gt;&lt;b&gt;APP 调用UFO API&amp;nbsp; Transfer接口&lt;br&gt;&lt;/b&gt;&lt;b&gt;&lt;font color=&quot;#990000&quot;&gt;流程:&lt;br&gt;&lt;/font&gt;&lt;/b&gt;&lt;b style=&quot;font-size: 13px&quot;&gt;B and User1 are in talking call&lt;br&gt;transfer User 1 to A&lt;br&gt;B release&lt;br&gt;A and User are in talking call&lt;br&gt;&lt;br style=&quot;font-size: 13px&quot;&gt;&lt;/b&gt;&lt;/font&gt;" style="text;html=1;fillColor=#fff2cc;align=left;verticalAlign=middle;whiteSpace=wrap;rounded=0;dashed=1;dashPattern=1 4;strokeColor=#d6b656;fontSize=13;" vertex="1" parent="1">
          <mxGeometry x="-271" y="1117" width="240" height="140" as="geometry" />
        </mxCell>
        <mxCell id="C5qwW8_5AIW-Mqb_H4qT-139" value="HOLD EVENT" style="html=1;verticalAlign=bottom;endArrow=none;labelBackgroundColor=none;fontFamily=Verdana;fontSize=14;edgeStyle=elbowEdgeStyle;elbow=vertical;strokeWidth=4;strokeColor=#007FFF;fontStyle=1;startArrow=block;startFill=1;endFill=0;" edge="1" parent="1">
          <mxGeometry relative="1" as="geometry">
            <mxPoint x="-3" y="955" as="sourcePoint" />
            <mxPoint x="277" y="955" as="targetPoint" />
          </mxGeometry>
        </mxCell>
        <mxCell id="C5qwW8_5AIW-Mqb_H4qT-140" value="UNHOLD EVENT" style="html=1;verticalAlign=bottom;endArrow=none;labelBackgroundColor=none;fontFamily=Verdana;fontSize=14;edgeStyle=elbowEdgeStyle;elbow=vertical;strokeWidth=4;strokeColor=#007FFF;fontStyle=1;startArrow=block;startFill=1;endFill=0;" edge="1" parent="1">
          <mxGeometry relative="1" as="geometry">
            <mxPoint x="-6" y="1039" as="sourcePoint" />
            <mxPoint x="274" y="1039" as="targetPoint" />
          </mxGeometry>
        </mxCell>
        <mxCell id="C5qwW8_5AIW-Mqb_H4qT-141" value="CALL STATE EVENT" style="html=1;verticalAlign=bottom;endArrow=none;labelBackgroundColor=none;fontFamily=Verdana;fontSize=14;edgeStyle=elbowEdgeStyle;elbow=vertical;strokeWidth=4;strokeColor=#007FFF;fontStyle=1;startArrow=block;startFill=1;endFill=0;" edge="1" parent="1">
          <mxGeometry relative="1" as="geometry">
            <mxPoint x="-2" y="720" as="sourcePoint" />
            <mxPoint x="278" y="720" as="targetPoint" />
          </mxGeometry>
        </mxCell>
        <mxCell id="C5qwW8_5AIW-Mqb_H4qT-142" value="CALL STATE EVENT" style="html=1;verticalAlign=bottom;endArrow=none;labelBackgroundColor=none;fontFamily=Verdana;fontSize=14;edgeStyle=elbowEdgeStyle;elbow=vertical;strokeWidth=4;strokeColor=#007FFF;fontStyle=1;startArrow=block;startFill=1;endFill=0;" edge="1" parent="1">
          <mxGeometry relative="1" as="geometry">
            <mxPoint y="788" as="sourcePoint" />
            <mxPoint x="280" y="788" as="targetPoint" />
          </mxGeometry>
        </mxCell>
        <mxCell id="C5qwW8_5AIW-Mqb_H4qT-143" value="CALL STATE EVENT" style="html=1;verticalAlign=bottom;endArrow=none;labelBackgroundColor=none;fontFamily=Verdana;fontSize=14;edgeStyle=elbowEdgeStyle;elbow=vertical;strokeWidth=4;strokeColor=#007FFF;fontStyle=1;startArrow=block;startFill=1;endFill=0;" edge="1" parent="1">
          <mxGeometry relative="1" as="geometry">
            <mxPoint y="496" as="sourcePoint" />
            <mxPoint x="280" y="496" as="targetPoint" />
          </mxGeometry>
        </mxCell>
        <mxCell id="C5qwW8_5AIW-Mqb_H4qT-144" value="CALL STATE EVENT" style="html=1;verticalAlign=bottom;endArrow=none;labelBackgroundColor=none;fontFamily=Verdana;fontSize=14;edgeStyle=elbowEdgeStyle;elbow=vertical;strokeWidth=4;strokeColor=#007FFF;fontStyle=1;startArrow=block;startFill=1;endFill=0;" edge="1" parent="1">
          <mxGeometry relative="1" as="geometry">
            <mxPoint x="-1" y="600" as="sourcePoint" />
            <mxPoint x="279" y="600" as="targetPoint" />
          </mxGeometry>
        </mxCell>
        <mxCell id="C5qwW8_5AIW-Mqb_H4qT-145" value="INVITE" style="html=1;verticalAlign=bottom;endArrow=none;entryX=0;entryY=0;labelBackgroundColor=none;fontFamily=Verdana;fontSize=12;edgeStyle=elbowEdgeStyle;elbow=vertical;startArrow=classic;startFill=1;endFill=0;" edge="1" parent="1">
          <mxGeometry relative="1" as="geometry">
            <mxPoint x="154" y="1174" as="sourcePoint" />
            <mxPoint x="284" y="1174" as="targetPoint" />
          </mxGeometry>
        </mxCell>
        <mxCell id="C5qwW8_5AIW-Mqb_H4qT-146" value="200OK" style="html=1;verticalAlign=bottom;endArrow=open;dashed=1;endSize=8;labelBackgroundColor=none;fontFamily=Verdana;fontSize=12;" edge="1" parent="1">
          <mxGeometry relative="1" as="geometry">
            <mxPoint x="155" y="1192" as="targetPoint" />
            <mxPoint x="280" y="1192.5" as="sourcePoint" />
          </mxGeometry>
        </mxCell>
        <mxCell id="C5qwW8_5AIW-Mqb_H4qT-147" value="BEY" style="html=1;verticalAlign=bottom;endArrow=block;labelBackgroundColor=none;fontFamily=Verdana;fontSize=12;edgeStyle=elbowEdgeStyle;elbow=vertical;labelPosition=center;verticalLabelPosition=middle;align=center;" edge="1" parent="1">
          <mxGeometry relative="1" as="geometry">
            <mxPoint x="294" y="1165" as="sourcePoint" />
            <mxPoint x="442" y="1164" as="targetPoint" />
            <Array as="points">
              <mxPoint x="579" y="1164" />
            </Array>
          </mxGeometry>
        </mxCell>
        <mxCell id="C5qwW8_5AIW-Mqb_H4qT-148" value="CALL STATE EVENT" style="html=1;verticalAlign=bottom;endArrow=none;labelBackgroundColor=none;fontFamily=Verdana;fontSize=14;edgeStyle=elbowEdgeStyle;elbow=vertical;strokeWidth=4;strokeColor=#007FFF;fontStyle=1;startArrow=block;startFill=1;endFill=0;" edge="1" parent="1">
          <mxGeometry relative="1" as="geometry">
            <mxPoint x="-2" y="1215" as="sourcePoint" />
            <mxPoint x="278" y="1215" as="targetPoint" />
          </mxGeometry>
        </mxCell>
        <mxCell id="C5qwW8_5AIW-Mqb_H4qT-149" value="" style="rounded=1;whiteSpace=wrap;html=1;dashed=1;dashPattern=1 4;fillColor=#f5f5f5;strokeColor=#666666;fontColor=#333333;" vertex="1" parent="1">
          <mxGeometry x="-280" y="1292" width="1100" height="170" as="geometry" />
        </mxCell>
        <mxCell id="C5qwW8_5AIW-Mqb_H4qT-150" value="" style="html=1;points=[];perimeter=orthogonalPerimeter;rounded=0;shadow=0;comic=0;labelBackgroundColor=none;strokeWidth=1;fontFamily=Verdana;fontSize=12;align=center;fillColor=#60a917;strokeColor=#2D7600;fontColor=#ffffff;" vertex="1" parent="1">
          <mxGeometry x="284" y="1292" width="10" height="170" as="geometry" />
        </mxCell>
        <mxCell id="C5qwW8_5AIW-Mqb_H4qT-151" value="" style="html=1;points=[];perimeter=orthogonalPerimeter;rounded=0;shadow=0;comic=0;labelBackgroundColor=none;strokeWidth=1;fontFamily=Verdana;fontSize=12;align=center;" vertex="1" parent="1">
          <mxGeometry x="144" y="1292" width="10" height="170" as="geometry" />
        </mxCell>
        <mxCell id="C5qwW8_5AIW-Mqb_H4qT-152" value="" style="html=1;points=[];perimeter=orthogonalPerimeter;rounded=0;shadow=0;comic=0;labelBackgroundColor=none;strokeWidth=1;fontFamily=Verdana;fontSize=12;align=center;" vertex="1" parent="1">
          <mxGeometry x="444" y="1292" width="10" height="170" as="geometry" />
        </mxCell>
        <mxCell id="C5qwW8_5AIW-Mqb_H4qT-153" value="" style="html=1;points=[];perimeter=orthogonalPerimeter;rounded=0;shadow=0;comic=0;labelBackgroundColor=none;strokeWidth=1;fontFamily=Verdana;fontSize=12;align=center;" vertex="1" parent="1">
          <mxGeometry x="584" y="1292" width="10" height="170" as="geometry" />
        </mxCell>
        <mxCell id="C5qwW8_5AIW-Mqb_H4qT-154" value="&lt;span style=&quot;font-size: 9pt&quot;&gt;Consult&lt;/span&gt;Transfer" style="html=1;verticalAlign=bottom;endArrow=block;entryX=0;entryY=0;labelBackgroundColor=none;fontFamily=Verdana;fontSize=14;edgeStyle=elbowEdgeStyle;elbow=vertical;strokeWidth=4;strokeColor=#990000;exitX=0.9;exitY=0.288;exitDx=0;exitDy=0;exitPerimeter=0;fontStyle=1" edge="1" parent="1" source="C5qwW8_5AIW-Mqb_H4qT-159">
          <mxGeometry relative="1" as="geometry">
            <mxPoint x="153" y="1342" as="sourcePoint" />
            <mxPoint x="283" y="1342" as="targetPoint" />
          </mxGeometry>
        </mxCell>
        <mxCell id="C5qwW8_5AIW-Mqb_H4qT-155" value="" style="shape=flexArrow;endArrow=classic;startArrow=classic;html=1;fillColor=#dae8fc;strokeColor=#6c8ebf;targetPerimeterSpacing=0;entryX=0;entryY=0.676;entryDx=0;entryDy=0;entryPerimeter=0;width=19;endSize=8.7;" edge="1" parent="1">
          <mxGeometry width="50" height="50" relative="1" as="geometry">
            <mxPoint x="159" y="1434" as="sourcePoint" />
            <mxPoint x="584" y="1433.92" as="targetPoint" />
          </mxGeometry>
        </mxCell>
        <mxCell id="C5qwW8_5AIW-Mqb_H4qT-156" value="A and User 1 are in talking call" style="text;html=1;align=center;verticalAlign=middle;resizable=0;points=[];labelBackgroundColor=#ffffff;" vertex="1" connectable="0" parent="C5qwW8_5AIW-Mqb_H4qT-155">
          <mxGeometry x="-0.2421" relative="1" as="geometry">
            <mxPoint y="-1" as="offset" />
          </mxGeometry>
        </mxCell>
        <mxCell id="C5qwW8_5AIW-Mqb_H4qT-157" value="" style="shape=flexArrow;endArrow=classic;startArrow=classic;html=1;fillColor=#dae8fc;strokeColor=#6c8ebf;targetPerimeterSpacing=0;width=22;endSize=10;" edge="1" parent="1" target="C5qwW8_5AIW-Mqb_H4qT-153">
          <mxGeometry width="50" height="50" relative="1" as="geometry">
            <mxPoint x="460" y="1322" as="sourcePoint" />
            <mxPoint x="289" y="1312" as="targetPoint" />
          </mxGeometry>
        </mxCell>
        <mxCell id="C5qwW8_5AIW-Mqb_H4qT-158" value="B and User 1 are in talking call" style="text;html=1;align=center;verticalAlign=middle;resizable=0;points=[];labelBackgroundColor=#ffffff;" vertex="1" connectable="0" parent="C5qwW8_5AIW-Mqb_H4qT-157">
          <mxGeometry x="-0.2421" relative="1" as="geometry">
            <mxPoint x="13" as="offset" />
          </mxGeometry>
        </mxCell>
        <mxCell id="C5qwW8_5AIW-Mqb_H4qT-159" value="" style="html=1;points=[];perimeter=orthogonalPerimeter;rounded=0;shadow=0;comic=0;labelBackgroundColor=none;strokeWidth=1;fontFamily=Verdana;fontSize=12;align=center;" vertex="1" parent="1">
          <mxGeometry x="-16" y="1292" width="10" height="170" as="geometry" />
        </mxCell>
        <mxCell id="C5qwW8_5AIW-Mqb_H4qT-160" value="&lt;font style=&quot;font-size: 13px&quot;&gt;&lt;b&gt;&lt;font color=&quot;#990000&quot;&gt;协商转：&lt;br&gt;&lt;/font&gt;&lt;/b&gt;&lt;b&gt;APP 调用UFO API&amp;nbsp; Transfer接口&lt;br&gt;&lt;/b&gt;&lt;b&gt;&lt;font color=&quot;#990000&quot;&gt;流程：&lt;br&gt;&lt;/font&gt;&lt;/b&gt;&lt;b style=&quot;font-size: 13px&quot;&gt;B and User 1 are in talking call&lt;br&gt;hold User 1&lt;br&gt;transfer B to A&lt;br&gt;A and B are in talking call&lt;br&gt;&lt;br style=&quot;font-size: 13px&quot;&gt;&lt;/b&gt;&lt;/font&gt;" style="text;html=1;fillColor=#fff2cc;align=left;verticalAlign=middle;whiteSpace=wrap;rounded=0;dashed=1;dashPattern=1 4;strokeColor=#d6b656;fontSize=13;" vertex="1" parent="1">
          <mxGeometry x="-271" y="1307" width="240" height="140" as="geometry" />
        </mxCell>
        <mxCell id="C5qwW8_5AIW-Mqb_H4qT-161" value="INVITE" style="html=1;verticalAlign=bottom;endArrow=none;entryX=0;entryY=0;labelBackgroundColor=none;fontFamily=Verdana;fontSize=12;edgeStyle=elbowEdgeStyle;elbow=vertical;startArrow=classic;startFill=1;endFill=0;" edge="1" parent="1">
          <mxGeometry relative="1" as="geometry">
            <mxPoint x="154" y="1364" as="sourcePoint" />
            <mxPoint x="284" y="1364" as="targetPoint" />
          </mxGeometry>
        </mxCell>
        <mxCell id="C5qwW8_5AIW-Mqb_H4qT-162" value="200OK" style="html=1;verticalAlign=bottom;endArrow=open;dashed=1;endSize=8;labelBackgroundColor=none;fontFamily=Verdana;fontSize=12;" edge="1" parent="1">
          <mxGeometry relative="1" as="geometry">
            <mxPoint x="155" y="1382" as="targetPoint" />
            <mxPoint x="280" y="1382.5" as="sourcePoint" />
          </mxGeometry>
        </mxCell>
        <mxCell id="C5qwW8_5AIW-Mqb_H4qT-163" value="BEY" style="html=1;verticalAlign=bottom;endArrow=block;labelBackgroundColor=none;fontFamily=Verdana;fontSize=12;edgeStyle=elbowEdgeStyle;elbow=vertical;labelPosition=center;verticalLabelPosition=middle;align=center;" edge="1" parent="1">
          <mxGeometry relative="1" as="geometry">
            <mxPoint x="294" y="1355" as="sourcePoint" />
            <mxPoint x="442" y="1354" as="targetPoint" />
            <Array as="points">
              <mxPoint x="579" y="1354" />
            </Array>
          </mxGeometry>
        </mxCell>
        <mxCell id="C5qwW8_5AIW-Mqb_H4qT-164" value="CALL STATE EVENT" style="html=1;verticalAlign=bottom;endArrow=none;labelBackgroundColor=none;fontFamily=Verdana;fontSize=14;edgeStyle=elbowEdgeStyle;elbow=vertical;strokeWidth=4;strokeColor=#007FFF;fontStyle=1;startArrow=block;startFill=1;endFill=0;" edge="1" parent="1">
          <mxGeometry relative="1" as="geometry">
            <mxPoint x="-2" y="1405" as="sourcePoint" />
            <mxPoint x="278" y="1405" as="targetPoint" />
          </mxGeometry>
        </mxCell>
        <mxCell id="C5qwW8_5AIW-Mqb_H4qT-165" value="" style="rounded=1;whiteSpace=wrap;html=1;dashed=1;dashPattern=1 4;fillColor=#f5f5f5;strokeColor=#666666;fontColor=#333333;" vertex="1" parent="1">
          <mxGeometry x="-280" y="180" width="1100" height="190" as="geometry" />
        </mxCell>
        <mxCell id="C5qwW8_5AIW-Mqb_H4qT-166" value="" style="html=1;points=[];perimeter=orthogonalPerimeter;rounded=0;shadow=0;comic=0;labelBackgroundColor=none;strokeWidth=1;fontFamily=Verdana;fontSize=12;align=center;fillColor=#60a917;strokeColor=#2D7600;fontColor=#ffffff;" vertex="1" parent="1">
          <mxGeometry x="285" y="183" width="10" height="187" as="geometry" />
        </mxCell>
        <mxCell id="C5qwW8_5AIW-Mqb_H4qT-167" value="" style="html=1;points=[];perimeter=orthogonalPerimeter;rounded=0;shadow=0;comic=0;labelBackgroundColor=none;strokeWidth=1;fontFamily=Verdana;fontSize=12;align=center;" vertex="1" parent="1">
          <mxGeometry x="145" y="182" width="10" height="188" as="geometry" />
        </mxCell>
        <mxCell id="C5qwW8_5AIW-Mqb_H4qT-168" value="PInitialize" style="html=1;verticalAlign=bottom;endArrow=block;entryX=0;entryY=0;labelBackgroundColor=none;fontFamily=Verdana;fontSize=13;edgeStyle=elbowEdgeStyle;elbow=vertical;strokeColor=#990000;strokeWidth=4;fontStyle=1" edge="1" parent="1">
          <mxGeometry relative="1" as="geometry">
            <mxPoint x="1" y="199" as="sourcePoint" />
            <mxPoint x="286" y="199" as="targetPoint" />
          </mxGeometry>
        </mxCell>
        <mxCell id="C5qwW8_5AIW-Mqb_H4qT-169" value="" style="html=1;points=[];perimeter=orthogonalPerimeter;rounded=0;shadow=0;comic=0;labelBackgroundColor=none;strokeWidth=1;fontFamily=Verdana;fontSize=12;align=center;" vertex="1" parent="1">
          <mxGeometry x="445" y="180" width="10" height="190" as="geometry" />
        </mxCell>
        <mxCell id="C5qwW8_5AIW-Mqb_H4qT-170" value="" style="html=1;points=[];perimeter=orthogonalPerimeter;rounded=0;shadow=0;comic=0;labelBackgroundColor=none;strokeWidth=1;fontFamily=Verdana;fontSize=12;align=center;" vertex="1" parent="1">
          <mxGeometry x="585" y="180" width="10" height="190" as="geometry" />
        </mxCell>
        <mxCell id="C5qwW8_5AIW-Mqb_H4qT-171" value="" style="shape=flexArrow;endArrow=classic;startArrow=classic;html=1;fillColor=#dae8fc;strokeColor=#6c8ebf;targetPerimeterSpacing=0;width=18;endSize=10.33;" edge="1" parent="1">
          <mxGeometry width="50" height="50" relative="1" as="geometry">
            <mxPoint x="155" y="299" as="sourcePoint" />
            <mxPoint x="585" y="299" as="targetPoint" />
          </mxGeometry>
        </mxCell>
        <mxCell id="C5qwW8_5AIW-Mqb_H4qT-172" value="Client A and User 1 are in talking Call" style="text;html=1;align=center;verticalAlign=middle;resizable=0;points=[];labelBackgroundColor=#ffffff;" vertex="1" connectable="0" parent="C5qwW8_5AIW-Mqb_H4qT-171">
          <mxGeometry x="-0.2421" relative="1" as="geometry">
            <mxPoint x="30" y="-2" as="offset" />
          </mxGeometry>
        </mxCell>
        <mxCell id="C5qwW8_5AIW-Mqb_H4qT-173" value="REGISTER" style="html=1;verticalAlign=bottom;endArrow=block;entryX=0;entryY=0;labelBackgroundColor=none;fontFamily=Verdana;fontSize=12;edgeStyle=elbowEdgeStyle;elbow=vertical;" edge="1" parent="1">
          <mxGeometry relative="1" as="geometry">
            <mxPoint x="155" y="224" as="sourcePoint" />
            <mxPoint x="285" y="224" as="targetPoint" />
          </mxGeometry>
        </mxCell>
        <mxCell id="C5qwW8_5AIW-Mqb_H4qT-174" value="&lt;font style=&quot;font-size: 13px&quot;&gt;&lt;span style=&quot;font-size: 13px&quot;&gt;&lt;font color=&quot;#990000&quot; style=&quot;font-size: 13px&quot;&gt;内置软电话初始化：&lt;/font&gt;&lt;br style=&quot;font-size: 13px&quot;&gt;APP 调用 内置软电话 API MakeCall接口直接呼叫User1&lt;br style=&quot;font-size: 13px&quot;&gt;&lt;/span&gt;&lt;/font&gt;" style="text;html=1;fillColor=#fff2cc;align=left;verticalAlign=middle;whiteSpace=wrap;rounded=0;dashed=1;dashPattern=1 4;strokeColor=#d6b656;fontStyle=1;fontSize=13;" vertex="1" parent="1">
          <mxGeometry x="-271" y="200" width="240" height="140" as="geometry" />
        </mxCell>
        <mxCell id="C5qwW8_5AIW-Mqb_H4qT-175" value="&lt;span lang=&quot;EN-US&quot; style=&quot;white-space: normal; font-size: 13px;&quot;&gt;PunInitialize&lt;/span&gt;" style="html=1;verticalAlign=bottom;endArrow=block;entryX=0;entryY=0;labelBackgroundColor=none;fontFamily=Verdana;fontSize=13;edgeStyle=elbowEdgeStyle;elbow=vertical;strokeColor=#990000;strokeWidth=4;fontStyle=1" edge="1" parent="1">
          <mxGeometry relative="1" as="geometry">
            <mxPoint x="-1" y="328" as="sourcePoint" />
            <mxPoint x="284" y="328" as="targetPoint" />
          </mxGeometry>
        </mxCell>
        <mxCell id="C5qwW8_5AIW-Mqb_H4qT-178" value="200OK" style="html=1;verticalAlign=bottom;endArrow=open;dashed=1;endSize=8;labelBackgroundColor=none;fontFamily=Verdana;fontSize=12;" edge="1" parent="1">
          <mxGeometry relative="1" as="geometry">
            <mxPoint x="156" y="240" as="targetPoint" />
            <mxPoint x="281" y="240.5" as="sourcePoint" />
          </mxGeometry>
        </mxCell>
        <mxCell id="C5qwW8_5AIW-Mqb_H4qT-179" value="" style="html=1;points=[];perimeter=orthogonalPerimeter;rounded=0;shadow=0;comic=0;labelBackgroundColor=none;strokeWidth=1;fontFamily=Verdana;fontSize=12;align=center;" vertex="1" parent="1">
          <mxGeometry x="-16" y="183" width="10" height="188" as="geometry" />
        </mxCell>
        <mxCell id="C5qwW8_5AIW-Mqb_H4qT-181" value="CALL STATE EVENT" style="html=1;verticalAlign=bottom;endArrow=none;labelBackgroundColor=none;fontFamily=Verdana;fontSize=14;edgeStyle=elbowEdgeStyle;elbow=vertical;strokeWidth=4;strokeColor=#007FFF;fontStyle=1;startArrow=block;startFill=1;endFill=0;" edge="1" parent="1">
          <mxGeometry relative="1" as="geometry">
            <mxPoint y="271" as="sourcePoint" />
            <mxPoint x="280" y="271" as="targetPoint" />
          </mxGeometry>
        </mxCell>
        <mxCell id="C5qwW8_5AIW-Mqb_H4qT-182" value="CALL STATE EVENT" style="html=1;verticalAlign=bottom;endArrow=none;labelBackgroundColor=none;fontFamily=Verdana;fontSize=14;edgeStyle=elbowEdgeStyle;elbow=vertical;strokeWidth=4;strokeColor=#007FFF;fontStyle=1;startArrow=block;startFill=1;endFill=0;" edge="1" parent="1">
          <mxGeometry relative="1" as="geometry">
            <mxPoint x="-1" y="358" as="sourcePoint" />
            <mxPoint x="279" y="358" as="targetPoint" />
          </mxGeometry>
        </mxCell>
      </root>
    </mxGraphModel>
  </diagram>
</mxfile>
